<?xml version="1.0" encoding="utf-8"?>
<!-- Generator: Adobe Illustrator 16.0.0, SVG Export Plug-In . SVG Version: 6.00 Build 0)  -->
<!DOCTYPE svg PUBLIC "-//W3C//DTD SVG 1.1//EN" "http://www.w3.org/Graphics/SVG/1.1/DTD/svg11.dtd">
<svg version="1.1" id="Layer_1" xmlns="http://www.w3.org/2000/svg" xmlns:xlink="http://www.w3.org/1999/xlink" x="0px" y="0px"
	 width="337.113px" height="331px" viewBox="0 0 337.113 331" enable-background="new 0 0 337.113 331" xml:space="preserve">
<g>
	<path fill="#FC7E00" d="M328.057,262.245c0,34.657-28.099,62.755-62.754,62.755H71.811c-34.656,0-62.754-28.098-62.754-62.755
		V68.754C9.057,34.094,37.155,6,71.811,6h193.492c34.655,0,62.754,28.094,62.754,62.754V262.245z"/>
	<g>
		<g>
			<path fill="#FFFFFF" d="M185.225,243.614l4.04-8.531l6.207,2.932l1.591-3.371l-5.3-7.183l-9.401-4.453l-3.406,7.19l6.206,2.943
				l-4.96,10.473h-2.902c-1.315-2.958-1.377-3.849-1.896-4.571c-0.583-0.811-1.562-1.143-2.329-0.841l-1.43-1.987l1.139-0.826
				l-2.44-3.405l-2.288,1.636l-4.674-6.525l-1.998-4.674l-3.039-2.061l-2.068,1.479l0.984,3.543l3.788,3.391l4.676,6.521
				l-2.28,1.636l2.45,3.406l1.139-0.818l1.426,1.992c-0.453,0.542-0.495,1.364-0.138,2.105h-15.732v-4.847
				c2.806-1.426,4.741-4.331,4.741-7.702c0-3.673-2.295-6.804-5.521-8.058v8.842h-6.242v-8.842c-3.23,1.254-5.52,4.385-5.52,8.058
				c0,3.371,1.93,6.276,4.738,7.702v4.847h-10.333v12.618h68.21v-12.618H185.225z"/>
			<rect x="134.452" y="259.394" fill="#FFFFFF" width="68.21" height="25.178"/>
		</g>
		<path fill="#FFFFFF" d="M221.118,46.429H115.997c-21.329,0-38.619,17.291-38.619,38.623v160.906
			c0,21.321,17.291,38.613,38.619,38.613h2.791h5.457h2.345v-40.957h-2.353h-5.449h-11.456V87.388h122.447v156.227H219.9h-6.013
			h-3.363v40.957h3.356h6.02h1.218c21.327,0,38.617-17.292,38.617-38.613V85.052C259.735,63.72,242.445,46.429,221.118,46.429z"/>
	</g>
</g>
</svg>
